<?xml version="1.0" encoding="UTF-8" standalone="no"?>
<!DOCTYPE svg PUBLIC "-//W3C//DTD SVG 1.1//EN"
 "http://www.w3.org/Graphics/SVG/1.1/DTD/svg11.dtd">
<!-- Generated by graphviz version 2.38.0 (20140413.2041)
 -->
<!-- Title: Grammar Pages: 1 -->
<svg width="90pt" height="140pt"
 viewBox="0.00 0.00 90.00 140.00" xmlns="http://www.w3.org/2000/svg" xmlns:xlink="http://www.w3.org/1999/xlink">
<g id="graph0" class="graph" transform="scale(1 1) rotate(0) translate(4 136)">
<title>Grammar</title>
<!-- Node3 -->
<g id="node1" class="node"><title>Node3</title>
<polygon fill="#bfbfbf" stroke="black" points="12.5,-0.5 12.5,-19.5 69.5,-19.5 69.5,-0.5 12.5,-0.5"/>
<text text-anchor="middle" x="41" y="-7.5" font-family="Helvetica,sans-Serif" font-size="10.00">Grammar</text>
</g>
<!-- Node4 -->
<g id="node2" class="node"><title>Node4</title>
<g id="a_node2"><a xlink:href="../../d8/d71/class_composite_test.html" target="_top" xlink:title="CompositeTest">
<polygon fill="none" stroke="black" points="0,-56.5 0,-75.5 82,-75.5 82,-56.5 0,-56.5"/>
<text text-anchor="middle" x="41" y="-63.5" font-family="Helvetica,sans-Serif" font-size="10.00">CompositeTest</text>
</a>
</g>
</g>
<!-- Node4&#45;&gt;Node3 -->
<g id="edge1" class="edge"><title>Node4&#45;&gt;Node3</title>
<path fill="none" stroke="midnightblue" d="M41,-45.8045C41,-36.9102 41,-26.7798 41,-19.7511"/>
<polygon fill="midnightblue" stroke="midnightblue" points="37.5001,-46.083 41,-56.083 44.5001,-46.083 37.5001,-46.083"/>
</g>
<!-- Node5 -->
<g id="node3" class="node"><title>Node5</title>
<g id="a_node3"><a xlink:href="../../d1/d9b/class_test.html" target="_top" xlink:title="Test">
<polygon fill="none" stroke="black" points="23.5,-112.5 23.5,-131.5 58.5,-131.5 58.5,-112.5 23.5,-112.5"/>
<text text-anchor="middle" x="41" y="-119.5" font-family="Helvetica,sans-Serif" font-size="10.00">Test</text>
</a>
</g>
</g>
<!-- Node5&#45;&gt;Node4 -->
<g id="edge2" class="edge"><title>Node5&#45;&gt;Node4</title>
<path fill="none" stroke="midnightblue" d="M41,-101.805C41,-92.9102 41,-82.7798 41,-75.7511"/>
<polygon fill="midnightblue" stroke="midnightblue" points="37.5001,-102.083 41,-112.083 44.5001,-102.083 37.5001,-102.083"/>
</g>
</g>
</svg>
